<svg width="16" height="16" viewBox="0 0 16 16" fill="none" xmlns="http://www.w3.org/2000/svg">
<mask id="mask0_145_7505" style="mask-type:alpha" maskUnits="userSpaceOnUse" x="0" y="0" width="16" height="16">
<path d="M5.66668 12.6667H5.33334C2.66668 12.6667 1.33334 12 1.33334 8.66671V5.33337C1.33334 2.66671 2.66668 1.33337 5.33334 1.33337H10.6667C13.3333 1.33337 14.6667 2.66671 14.6667 5.33337V8.66671C14.6667 11.3334 13.3333 12.6667 10.6667 12.6667H10.3333C10.1267 12.6667 9.92668 12.7667 9.80001 12.9334L8.80001 14.2667C8.36001 14.8534 7.64001 14.8534 7.20001 14.2667L6.20001 12.9334C6.09334 12.7867 5.84668 12.6667 5.66668 12.6667Z" stroke="#292D32" stroke-width="1.5" stroke-miterlimit="10" stroke-linecap="round" stroke-linejoin="round"/>
<path d="M10.6643 7.33333H10.6703" stroke="#292D32" stroke-width="2" stroke-linecap="round" stroke-linejoin="round"/>
<path d="M7.997 7.33333H8.00299" stroke="#292D32" stroke-width="2" stroke-linecap="round" stroke-linejoin="round"/>
<path d="M5.32967 7.33333H5.33566" stroke="#292D32" stroke-width="2" stroke-linecap="round" stroke-linejoin="round"/>
</mask>
<g mask="url(#mask0_145_7505)">
<rect width="16" height="16" fill="#4E4E67"/>
</g>
</svg>
